<svg width="34" height="22" viewBox="0 0 34 22" fill="none" xmlns="http://www.w3.org/2000/svg">
<path d="M34 0H0V2.43833H34V0Z" fill="#DC4437"/>
<path d="M34 4.89502H0V7.33335H34V4.89502Z" fill="#DC4437"/>
<path d="M34 14.6666H0V17.105H34V14.6666Z" fill="#DC4437"/>
<path d="M34 19.5616H0V22H34V19.5616Z" fill="#DC4437"/>
<path d="M34 9.77161H0V12.2099H34V9.77161Z" fill="#DC4437"/>
<path d="M34 2.43835H0V4.87669H34V2.43835Z" fill="white"/>
<path d="M34 7.33337H0V9.77171H34V7.33337Z" fill="white"/>
<path d="M34 17.105H0V19.5433H34V17.105Z" fill="white"/>
<path d="M34 12.2283H0V14.6666H34V12.2283Z" fill="white"/>
<path d="M18.3077 0H0V12.2283H18.3077V0Z" fill="#2A66B7"/>
<path d="M3.53075 0.733276L4.13229 1.63161L5.49229 1.77828L4.49844 2.49328L4.73383 3.48328L3.53075 3.00661L2.32768 3.48328L2.56306 2.49328L1.56921 1.77828L2.92921 1.63161L3.53075 0.733276Z" fill="white"/>
<path d="M8.89232 0.733276L9.49386 1.63161L10.8539 1.77828L9.88617 2.49328L10.0954 3.48328L8.89232 3.00661L7.68925 3.48328L7.89848 2.49328L6.93079 1.77828L8.29079 1.63161L8.89232 0.733276Z" fill="white"/>
<path d="M14.2538 0.733276L14.8554 1.63161L16.2154 1.77828L15.2215 2.49328L15.4569 3.48328L14.2538 3.00661L13.0508 3.48328L13.2861 2.49328L12.2923 1.77828L13.6523 1.63161L14.2538 0.733276Z" fill="white"/>
<path d="M6.27691 4.40002L6.87845 5.29836L8.23845 5.44502L7.27075 6.16002L7.47998 7.15002L6.27691 6.67336L5.07383 7.15002L5.28306 6.16002L4.31537 5.44502L5.67537 5.29836L6.27691 4.40002Z" fill="white"/>
<path d="M11.6385 4.40002L12.24 5.29836L13.6 5.44502L12.6062 6.16002L12.8416 7.15002L11.6385 6.67336L10.4354 7.15002L10.6708 6.16002L9.67694 5.44502L11.0369 5.29836L11.6385 4.40002Z" fill="white"/>
<path d="M3.53075 8.28662L4.13229 9.18495L5.49229 9.33162L4.49844 10.0283L4.73383 11.0366L3.53075 10.56L2.32768 11.0366L2.56306 10.0283L1.56921 9.33162L2.92921 9.18495L3.53075 8.28662Z" fill="white"/>
<path d="M8.89232 8.28662L9.49386 9.18495L10.8539 9.33162L9.88617 10.0283L10.0954 11.0366L8.89232 10.56L7.68925 11.0366L7.89848 10.0283L6.93079 9.33162L8.29079 9.18495L8.89232 8.28662Z" fill="white"/>
<path d="M14.2538 8.28662L14.8554 9.18495L16.2154 9.33162L15.2215 10.0283L15.4569 11.0366L14.2538 10.56L13.0508 11.0366L13.2861 10.0283L12.2923 9.33162L13.6523 9.18495L14.2538 8.28662Z" fill="white"/>
</svg>
