<svg width="40" height="40" viewBox="0 0 40 40" fill="none" xmlns="http://www.w3.org/2000/svg">
<mask id="mask0_0_360" style="mask-type:alpha" maskUnits="userSpaceOnUse" x="0" y="0" width="40" height="40">
<rect width="40" height="40" fill="#D9D9D9"/>
</mask>
<g mask="url(#mask0_0_360)">
<path d="M10.375 34.333C9.625 34.333 8.97233 34.0553 8.417 33.5C7.861 32.9447 7.583 32.292 7.583 31.542V27.125H12.708V22.333C11.6807 22.361 10.667 22.1873 9.667 21.812C8.667 21.4373 7.764 20.861 6.958 20.083V17.875H4.958L-0.5 12.417C0.5 11.361 1.70833 10.5483 3.125 9.97899C4.54167 9.40966 5.986 9.12499 7.458 9.12499C8.264 9.12499 9.139 9.22933 10.083 9.43799C11.0277 9.64599 11.9027 9.99999 12.708 10.5V7.66699H32V29.75C32 31.028 31.5557 32.1113 30.667 33C29.7777 33.8887 28.6943 34.333 27.417 34.333H10.375ZM15.458 27.125H25.625V29.75C25.625 30.278 25.7917 30.7087 26.125 31.042C26.4583 31.3753 26.889 31.542 27.417 31.542C27.9443 31.542 28.3747 31.3753 28.708 31.042C29.0413 30.7087 29.208 30.278 29.208 29.75V10.458H15.458V12.375L25.5 22.375V24.375H23.542L18.458 19.292L17.875 19.958C17.4863 20.3473 17.1043 20.667 16.729 20.917C16.3543 21.167 15.9307 21.389 15.458 21.583V27.125ZM6.167 15.083H9.75V18.75C10.1667 19.028 10.5903 19.2293 11.021 19.354C11.4517 19.4793 11.889 19.542 12.333 19.542C12.9997 19.542 13.6593 19.389 14.312 19.083C14.9653 18.7777 15.4863 18.4027 15.875 17.958L16.458 17.292L13.792 14.625C12.9307 13.7637 11.9583 13.09 10.875 12.604C9.79167 12.118 8.65267 11.875 7.458 11.875C6.764 11.875 6.132 11.9513 5.562 12.104C4.99267 12.2567 4.40267 12.458 3.792 12.708L6.167 15.083ZM22.833 29.875H10.375V31.542H23.292C23.1527 31.3473 23.0413 31.111 22.958 30.833C22.8747 30.5557 22.833 30.2363 22.833 29.875Z" fill="#25A4AD"/>
</g>
</svg>
