<svg width="23" height="21" viewBox="0 0 23 21" fill="none" xmlns="http://www.w3.org/2000/svg">
<mask id="mask0_61_227" style="mask-type:alpha" maskUnits="userSpaceOnUse" x="0" y="0" width="23" height="21">
<rect x="0.849792" y="0.198303" width="21.4191" height="20.6417" rx="4" fill="#D9D9D9"/>
</mask>
<g mask="url(#mask0_61_227)">
<path d="M11.56 17.7442C9.47733 17.7442 7.7074 17.0417 6.25019 15.6367C4.9905 14.4233 4.27501 12.9849 4.10373 11.3216C4.05829 10.8803 4.42291 10.5196 4.86651 10.5196C5.31011 10.5196 5.66298 10.881 5.72288 11.3205C5.88959 12.5438 6.4484 13.6134 7.39932 14.5292C8.55167 15.6404 9.93856 16.1961 11.56 16.1961C13.1814 16.1961 14.5683 15.6404 15.7206 14.5292C16.8737 13.4187 17.4502 12.0822 17.4502 10.5196C17.4502 8.957 16.8737 7.62045 15.7206 6.50993C14.5683 5.39872 13.1814 4.84311 11.56 4.84311C10.6375 4.84311 9.78613 5.02579 9.00575 5.39115C8.73347 5.51851 8.47611 5.66289 8.23368 5.82428C7.6959 6.18229 8.00913 6.90728 8.65517 6.90728C9.07651 6.90728 9.41807 7.25439 9.41807 7.67572C9.41807 8.10323 9.07151 8.45541 8.64401 8.45541H6.64351C5.21849 8.45541 4.06329 7.30021 4.06329 5.8752V4.0982C4.06329 3.65459 4.42291 3.29498 4.86651 3.29498H4.94642C5.34589 3.29498 5.66973 3.61882 5.66973 4.01829C5.66973 4.70306 6.61099 5.06696 7.17024 4.67179C7.49894 4.43953 7.85018 4.23139 8.22396 4.04737C9.24279 3.54578 10.3548 3.29498 11.56 3.29498C12.601 3.29498 13.5752 3.48489 14.4826 3.86469C15.3901 4.2445 16.1822 4.76054 16.8591 5.41282C17.5359 6.0651 18.0714 6.8285 18.4655 7.70302C18.8596 8.57754 19.0567 9.51639 19.0567 10.5196C19.0567 11.5228 18.8596 12.4616 18.4655 13.3361C18.0714 14.2107 17.5359 14.9741 16.8591 15.6263C16.1822 16.2786 15.3901 16.7947 14.4826 17.1745C13.5752 17.5543 12.601 17.7442 11.56 17.7442ZM14.3387 12.916C14.0328 13.2104 13.5488 13.2103 13.2431 12.9157L11.6435 11.3741C11.0769 10.8281 10.7568 10.075 10.7568 9.28816V7.19446C10.7568 6.75085 11.1164 6.39124 11.56 6.39124C12.0036 6.39124 12.3632 6.75085 12.3632 7.19446V8.83926C12.3632 9.5008 12.6323 10.1339 13.1087 10.5929L14.339 11.7786C14.6613 12.0892 14.6612 12.6055 14.3387 12.916Z" fill="#5C5F5F"/>
</g>
</svg>
