<svg width="40" height="40" viewBox="0 0 40 40" fill="none" xmlns="http://www.w3.org/2000/svg">
<mask id="mask0_0_351" style="mask-type:alpha" maskUnits="userSpaceOnUse" x="0" y="0" width="40" height="40">
<rect width="40" height="40" fill="#D9D9D9"/>
</mask>
<g mask="url(#mask0_0_351)">
<path d="M11.125 38.333C10.375 38.333 9.72234 38.0553 9.16701 37.5C8.61101 36.9447 8.33301 36.292 8.33301 35.542V4.45799C8.33301 3.70799 8.61101 3.05533 9.16701 2.49999C9.72234 1.94466 10.375 1.66699 11.125 1.66699H23.875V4.45799H11.125V5.83299H23.875V8.62499H11.125V31.375H28.875V26.667H31.667V35.542C31.667 36.292 31.389 36.9447 30.833 37.5C30.2777 38.0553 29.625 38.333 28.875 38.333H11.125ZM11.125 34.167V35.542H28.875V34.167H11.125ZM30.375 22.958L22.458 15L24.375 13.042L29 17.625V5.29199H31.792V17.625L36.375 13.042L38.333 15L30.375 22.958Z" fill="#25A4AD"/>
</g>
</svg>
