<svg width="21" height="20" viewBox="0 0 21 20" fill="none" xmlns="http://www.w3.org/2000/svg">
<path fill-rule="evenodd" clip-rule="evenodd" d="M6.75106 0.0596729C7.81772 0.0116031 8.15856 0 10.8744 0C13.5902 0 13.9311 0.0116031 14.9977 0.0596729C16.6227 0.133435 18.0502 0.529597 19.1961 1.66918C20.3419 2.80877 20.7402 4.22849 20.8144 5.84463C20.8627 6.90549 20.8744 7.24446 20.8744 9.94549C20.8744 12.6465 20.8627 12.9855 20.8144 14.0463C20.7402 15.6625 20.3419 17.0822 19.1961 18.2218C18.0502 19.3614 16.6227 19.7575 14.9977 19.8313C13.9311 19.8794 13.5902 19.891 10.8744 19.891C8.15856 19.891 7.81772 19.8794 6.75106 19.8313C5.12606 19.7575 3.69856 19.3614 2.55272 18.2218C1.40689 17.0822 1.00856 15.6625 0.93439 14.0463C0.886056 12.9855 0.87439 12.6465 0.87439 9.94549C0.87439 7.24446 0.886056 6.90549 0.93439 5.84463C1.00856 4.22849 1.40689 2.80877 2.55272 1.66918C3.69856 0.529597 5.12606 0.133435 6.75106 0.0596729ZM14.9143 1.85001C13.8602 1.80194 13.5435 1.79199 10.8735 1.79199C8.2035 1.79199 7.88684 1.80194 6.83267 1.85001C5.69434 1.90139 4.6385 2.12848 3.826 2.93655C3.0135 3.74462 2.78517 4.7947 2.7335 5.92683C2.68517 6.97525 2.67517 7.29019 2.67517 9.94564C2.67517 12.6011 2.68517 12.916 2.7335 13.9644C2.78517 15.0966 3.0135 16.1467 3.826 16.9547C4.6385 17.7628 5.69434 17.9899 6.83267 18.0413C7.88684 18.0893 8.2035 18.0993 10.8735 18.0993C13.5435 18.0993 13.8602 18.0893 14.9143 18.0413C16.0527 17.9899 17.1085 17.7628 17.921 16.9547C18.7335 16.1467 18.9618 15.0966 19.0135 13.9644C19.0618 12.916 19.0718 12.6011 19.0718 9.94564C19.0718 7.29019 19.0618 6.97525 19.0135 5.92683C18.9618 4.7947 18.7335 3.74462 17.921 2.93655C17.1085 2.12848 16.0527 1.90139 14.9143 1.85001ZM5.73767 9.9449C5.73767 7.12453 8.03684 4.83789 10.8727 4.83789C13.7085 4.83789 16.0077 7.12453 16.0077 9.9449C16.0077 12.7653 13.7085 15.0519 10.8727 15.0519C8.03684 15.0519 5.73767 12.7653 5.73767 9.9449ZM7.53845 9.94504C7.53845 11.7758 9.03095 13.2602 10.8718 13.2602C12.7126 13.2602 14.2051 11.7758 14.2051 9.94504C14.2051 8.11425 12.7126 6.62988 10.8718 6.62988C9.03095 6.62988 7.53845 8.11425 7.53845 9.94504ZM17.4111 4.63682C17.4111 5.29595 16.8738 5.83028 16.2111 5.83028C15.5484 5.83028 15.0111 5.29595 15.0111 4.63682C15.0111 3.97769 15.5484 3.44336 16.2111 3.44336C16.8738 3.44336 17.4111 3.97769 17.4111 4.63682Z" fill="#0A142F"/>
</svg>
