<svg width="40" height="40" viewBox="0 0 40 40" fill="none" xmlns="http://www.w3.org/2000/svg">
<mask id="mask0_0_369" style="mask-type:alpha" maskUnits="userSpaceOnUse" x="0" y="0" width="40" height="40">
<rect width="40" height="40" fill="#D9D9D9"/>
</mask>
<g mask="url(#mask0_0_369)">
<path d="M16.708 31.875H19.208V29.708C20.7913 29.514 22.0623 28.9933 23.021 28.146C23.979 27.2987 24.458 26.125 24.458 24.625C24.458 23.2917 24.083 22.1667 23.333 21.25C22.583 20.3333 21.236 19.486 19.292 18.708C17.6527 18.0973 16.486 17.542 15.792 17.042C15.0973 16.542 14.75 15.8753 14.75 15.042C14.75 14.236 15.0417 13.597 15.625 13.125C16.2083 12.653 17.0277 12.417 18.083 12.417C18.9443 12.417 19.6597 12.6183 20.229 13.021C20.7983 13.4237 21.2637 13.986 21.625 14.708L23.833 13.708C23.4163 12.736 22.8123 11.9443 22.021 11.333C21.229 10.7223 20.3193 10.3753 19.292 10.292V8.16701H16.792V10.292C15.3753 10.514 14.264 11.0627 13.458 11.938C12.6527 12.8127 12.25 13.8473 12.25 15.042C12.25 16.4027 12.6527 17.486 13.458 18.292C14.264 19.0973 15.5003 19.8193 17.167 20.458C19.0003 21.208 20.2573 21.8747 20.938 22.458C21.618 23.0413 21.958 23.7637 21.958 24.625C21.958 25.5417 21.604 26.25 20.896 26.75C20.1873 27.25 19.3193 27.5 18.292 27.5C17.264 27.5 16.3473 27.2013 15.542 26.604C14.736 26.0067 14.1663 25.1663 13.833 24.083L11.5 24.917C12.028 26.2223 12.7087 27.257 13.542 28.021C14.3753 28.785 15.4307 29.3197 16.708 29.625V31.875ZM18 36.667C15.722 36.667 13.5693 36.2293 11.542 35.354C9.51401 34.4793 7.74301 33.285 6.22901 31.771C4.71501 30.257 3.52067 28.486 2.64601 26.458C1.77067 24.4307 1.33301 22.278 1.33301 20C1.33301 17.6947 1.77067 15.528 2.64601 13.5C3.52067 11.472 4.71501 9.70801 6.22901 8.20801C7.74301 6.70801 9.51401 5.52067 11.542 4.64601C13.5693 3.77067 15.722 3.33301 18 3.33301C20.3053 3.33301 22.472 3.77067 24.5 4.64601C26.528 5.52067 28.292 6.70801 29.792 8.20801C31.292 9.70801 32.4793 11.472 33.354 13.5C34.2293 15.528 34.667 17.6947 34.667 20C34.667 22.278 34.2293 24.4307 33.354 26.458C32.4793 28.486 31.292 30.257 29.792 31.771C28.292 33.285 26.528 34.4793 24.5 35.354C22.472 36.2293 20.3053 36.667 18 36.667ZM18 33.875C21.8613 33.875 25.139 32.5277 27.833 29.833C30.5277 27.139 31.875 23.8613 31.875 20C31.875 16.1387 30.5277 12.861 27.833 10.167C25.139 7.47234 21.8613 6.12501 18 6.12501C14.1387 6.12501 10.861 7.47234 8.16701 10.167C5.47234 12.861 4.12501 16.1387 4.12501 20C4.12501 23.8613 5.47234 27.139 8.16701 29.833C10.861 32.5277 14.1387 33.875 18 33.875Z" fill="#25A4AD"/>
</g>
</svg>
