<svg width="20" height="16" viewBox="0 0 20 16" fill="none" xmlns="http://www.w3.org/2000/svg">
<path d="M17.9089 4.05368L17.9209 4.56028C17.9209 9.7334 13.9639 15.6933 6.72686 15.6933C4.50566 15.6933 2.43821 15.0457 0.696411 13.9351C1.00406 13.9708 1.31762 13.9907 1.63525 13.9907C3.47896 13.9907 5.17483 13.3649 6.52113 12.316C4.79931 12.2842 3.34709 11.1518 2.84573 9.59832C3.08741 9.644 3.33112 9.6659 3.58679 9.6659C3.94635 9.6659 4.29388 9.62022 4.62347 9.53082C2.82372 9.16923 1.46743 7.58991 1.46743 5.69469V5.64503C1.99875 5.93904 2.60399 6.11385 3.24918 6.13574C2.1945 5.43447 1.49937 4.23653 1.49937 2.87966C1.49937 2.16251 1.69314 1.49104 2.03069 0.912947C3.97027 3.28098 6.87063 4.83847 10.1405 5.00139C10.0726 4.71529 10.0387 4.41533 10.0387 4.10942C10.0387 1.94999 11.8005 0.197754 13.9738 0.197754C15.1044 0.197754 16.1271 0.672524 16.8462 1.4334C17.741 1.25656 18.584 0.930788 19.345 0.483792C19.0514 1.39765 18.4282 2.16447 17.6152 2.64917C18.4082 2.55579 19.1693 2.3432 19.8744 2.03331C19.3471 2.81601 18.6779 3.50539 17.9089 4.05368Z" fill="#0A142F"/>
</svg>
